
<svg width="800" height="450" viewBox="0 0 800 450" fill="none" xmlns="http://www.w3.org/2000/svg">
  <path d="M182.3,170c-1.1-0.9-2.3-1.8-3.4-2.6c-1.4-0.9-3.4-2.1-2.2-4c0.7-1.1,2.2-1.3,3.3-1.4c1.1-0.1,2.3-0.1,3.4-0.1 c2.5,0,5.1,0.2,7.6,0c1.2-0.1,2.5-0.2,3.6-0.6c1.3-0.4,2.7-1.1,4-1.1c1.7-0.1,3.3,1.5,5,1.6c0.8,0,1.6-0.3,2.4-0.5 c0.7-0.1,1.5-0.1,2.1,0.2c0.6,0.3,1,0.8,1.3,1.4c0.5,1,1,2,1.6,2.9c0.5,0.7,1.2,1.3,1.3,2.2c0.1,0.7-0.3,1.3-0.7,1.8 c-0.9,1.3-1.9,2.5-3,3.6c-0.5,0.5-1.1,0.9-1.7,1.2c-0.6,0.2-1.4,0.2-1.9,0.7c-0.8,0.7-0.6,1.9-0.6,2.9c0,1.2-0.1,2.5-0.8,3.5 c-0.5,0.8-1.3,1.2-2.1,1.7c-1.6,0.8-3.2,1.5-4.9,2.1c-0.8,0.3-1.7,0.6-2.6,0.6c-1,0-2-0.3-3-0.6c-2.1-0.6-4.3-1.4-6.1-2.6 c-1.1-0.7-2-1.5-2.8-2.5c-1-1.2-1.9-2.5-2.5-3.9c-0.3-0.7-0.5-1.4-0.5-2.2C178.8,172.7,180.9,171.1,182.3,170z" fill="#D8D8D8" stroke="#A0A0A0" stroke-width="1" />
  <path d="M276.7,211.8c-1.1,0.5-2.4,0.3-3.6,0.2c-1.9-0.2-3.9-0.4-5.7-1.1c-1.7-0.7-3.2-1.7-4.6-2.8c-1.4-1.2-2.7-2.5-3.5-4.1 c-0.8-1.5-1.1-3.1-1.7-4.7c-0.7-1.7-1.6-3.2-2.3-4.8c-0.8-1.8-1.1-3.7-1.5-5.6c-0.7-3.7-1.4-7.4-2.7-10.9c-0.6-1.8-1.3-3.5-1.7-5.3 c-0.4-1.8-0.4-3.6-0.3-5.5c0.1-3,0.3-6.1,1.2-9c0.9-2.9,2.3-5.5,3.8-8.1c1.5-2.6,3.2-5.2,5.5-7.1c1.9-1.5,4.1-2.5,6.3-3.3 c1.8-0.7,3.7-1.1,5.6-1.5c2.3-0.5,4.7-0.9,7.1-0.8c2.3,0.1,4.6,0.7,6.8,1.4c2.1,0.7,4.2,1.7,6,3.1c1.9,1.5,3.3,3.4,4.7,5.3 c1.3,1.9,2.5,3.9,3.6,6c0.9,1.6,1.7,3.3,2.2,5.1c0.5,1.8,0.7,3.7,0.8,5.6c0.1,3.1-0.3,6.2-1.5,9.1c-1.1,2.8-2.9,5.2-5.3,7 c-2.5,1.9-5.5,2.9-8.5,3.5c-2.5,0.5-5.1,0.6-7.6,0.6c-2.2,0-4.5-0.1-6.6-0.9c-2.7-1-4.9-3.1-6.5-5.4c-0.8-1.2-1.5-2.5-1.8-3.9 c-0.3-1.5-0.3-3-0.1-4.5c0.3-2.9,1.3-5.7,2.8-8.2c1.5-2.5,3.5-4.7,5.7-6.5c2.2-1.8,4.6-3.4,7.1-4.6c2.2-1.1,4.5-2,6.7-2.9 c0.3-0.1,0.6-0.3,0.7-0.6c0.1-0.3,0-0.6-0.2-0.9c-0.3-0.4-0.7-0.8-1.2-1c-0.9-0.5-1.9-0.8-3-0.9c-2-0.2-4,0.1-5.8,0.8 c-1.9,0.7-3.6,1.8-5.1,3.2c-2.5,2.4-4.1,5.5-5.2,8.8c-0.5,1.6-0.9,3.3-1.1,5c-0.2,1.6-0.3,3.2-0.3,4.8c0,3,0.4,6,1.3,8.8 c0.9,2.8,2.2,5.5,3.8,8c0.8,1.2,1.6,2.4,2.6,3.4c1,1,2.1,1.9,3.3,2.8c2.4,1.7,5,3.2,7.6,4.3c2.7,1.1,5.6,1.9,8.6,2.1 c0.8,0.1,1.6,0.1,2.3,0c0.4,0,0.7-0.1,1.1-0.2c0.3-0.1,0.6-0.3,0.8-0.5c0.2-0.2,0.2-0.4,0.2-0.6c0-0.2-0.1-0.4-0.2-0.5 c-0.2-0.3-0.4-0.5-0.7-0.7c-0.5-0.4-1-0.6-1.6-0.9c-1-0.5-2.1-0.9-3.1-1.4c-1.9-0.9-3.8-1.9-5.5-3.1c-1.7-1.2-3.2-2.6-4.4-4.3 c-1.1-1.7-2-3.5-2.4-5.5c-0.4-2-0.5-4.1-0.2-6.1c0.3-2,1.1-3.9,2.1-5.6c1.1-1.7,2.5-3.2,4.1-4.4c1.7-1.2,3.5-2.1,5.5-2.7 c1.9-0.6,3.9-0.8,5.9-0.8c3.3,0,6.6,0.8,9.5,2.4c2.9,1.6,5.3,3.8,7.1,6.6c1.7,2.8,2.8,5.9,3.1,9.1c0.3,3.2-0.1,6.5-1.2,9.6 c-1.1,3.1-2.8,5.9-5,8.3c-2.2,2.4-4.9,4.4-7.8,5.7c-3,1.3-6.3,2-9.6,2c-0.7,0-1.4,0-2.1-0.1C277.4,212,277,211.9,276.7,211.8z" fill="#D8D8D8" stroke="#A0A0A0" stroke-width="1" />
  <path d="M440.5,168.3c-1.8-0.1-3.6-0.5-5.3-1.2c-1.7-0.7-3.3-1.6-4.8-2.7c-1.5-1.1-2.9-2.4-4.1-3.8c-1.2-1.4-2.3-3-3.1-4.7 c-0.8-1.7-1.4-3.5-1.8-5.3c-0.4-1.9-0.7-3.8-0.7-5.7c0-2.6,0.4-5.3,1.2-7.8c0.8-2.5,2.1-4.9,3.7-7c1.6-2.1,3.5-3.9,5.6-5.4 c2.1-1.5,4.4-2.6,6.8-3.4c2.4-0.8,4.9-1.2,7.5-1.2c2.4,0,4.9,0.4,7.2,1.2c2.3,0.8,4.5,1.9,6.4,3.3c1.9,1.4,3.6,3.1,5,5 c1.4,1.8,2.6,3.8,3.5,5.9c0.9,2.1,1.5,4.4,1.9,6.7c0.3,2,0.4,4.1,0.2,6.1c-0.2,2-0.7,4-1.5,5.9c-0.9,2.1-2,4.1-3.4,6 c-1.4,1.8-3,3.5-4.8,4.9c-1.8,1.4-3.8,2.6-5.9,3.5c-2.1,0.9-4.3,1.5-6.6,1.8C444.6,168.4,442.5,168.4,440.5,168.3z" fill="#D8D8D8" stroke="#A0A0A0" stroke-width="1" />
</svg>
